<svg viewBox="0 0 24 24" xmlns="http://www.w3.org/2000/svg">
  <circle cx="12" cy="12" r="9" stroke="black" stroke-width="1.8" fill="none"/>
  <path d="M12,3 C7.03,3 3,7.03 3,12 L21,12 C21,7.03 16.97,3 12,3 Z" fill="black" opacity="0.4"/>
  <rect x="9" y="10" width="6" height="8" rx="1" stroke="black" stroke-width="1.8" fill="none"/>
  <circle cx="12" cy="13" r="1" fill="black"/>
  <path d="M12,13 L12,16" stroke="black" stroke-width="1.8" stroke-linecap="round"/>
</svg>
EOL# Service Icon
cat > "${TEMP_DIR}/service.svg" << 'EOL'
<svg viewBox="0 0 24 24" xmlns="http://www.w3.org/2000/svg">
  <path d="M12,4 L12,8" stroke="black" stroke-width="1.8" stroke-linecap="round"/>
  <path d="M16,6 L14,9.5" stroke="black" stroke-width="1.8" stroke-linecap="round"/>
  <path d="M8,6 L10,9.5" stroke="black" stroke-width="1.8" stroke-linecap="round"/>
  <path d="M4,12 L8,12" stroke="black" stroke-width="1.8" stroke-linecap="round"/>
  <path d="M16,12 L20,12" stroke="black" stroke-width="1.8" stroke-linecap="round"/>
  <path d="M6,17 L9.5,15" stroke="black" stroke-width="1.8" stroke-linecap="round"/>
  <path d="M14.5,15 L18,17" stroke="black" stroke-width="1.8" stroke-linecap="round"/>
  <circle cx="12" cy="12" r="3" fill="black"/>
</svg>
